<?xml version="1.0" encoding="UTF-8"?>
<svg id="Layer_1" xmlns="http://www.w3.org/2000/svg" xmlns:xlink="http://www.w3.org/1999/xlink" version="1.1" viewBox="0 0 47 44">
  <!-- Generator: Adobe Illustrator 29.3.0, SVG Export Plug-In . SVG Version: 2.1.0 Build 146)  -->
  <defs>
    <style>
      .st0 {
        fill: #a38bc0;
      }

      .st0, .st1, .st2, .st3, .st4, .st5, .st6, .st7, .st8, .st9 {
        fill-rule: evenodd;
      }

      .st1 {
        fill: #a4c843;
      }

      .st2 {
        fill: #fff;
        fill-opacity: .2;
      }

      .st3 {
        fill: #743e90;
      }

      .st4 {
        fill: #f08ab7;
      }

      .st5 {
        fill: #ee7aad;
      }

      .st6 {
        fill: #753189;
      }

      .st7 {
        fill: #cf4491;
      }

      .st8 {
        fill-opacity: .1;
      }

      .st9 {
        fill: #cc3f8f;
      }
    </style>
  </defs>
  <path class="st0" d="M6.2,25.9c0,.2-.2.2-.2,0-.3-1.5-.4-3-.3-4.5h0c.1-.5.4-.2.6,1,.3,1.3.3,3,0,3.6"/>
  <path class="st6" d="M23,3.9c-.5,0-1.1.1-1.3.1.6,0,1.2-.1,1.8-.2,0,0-.2,0-.4,0"/>
  <g>
    <path class="st9" d="M9.4,11.7c-.7.8-1.1,1.1-1.1,1,.9-1.4,1.9-2.6,3.1-3.6,0,0,0,0,0,0,0,.4-.9,1.6-1.9,2.6"/>
    <path class="st2" d="M15.8,10.9c-1.3.9-2.7.8-3-.1-.2-.8.5-1.9,1.7-2.7,1.2-.7,2.4-.9,2.9-.2.5.8-.1,2.2-1.5,3.1"/>
    <path class="st0" d="M33,14.4c-.8.4-2,0-2.6-.9-.6-.9-.4-1.9.5-2.3.8-.4,1.9,0,2.5.9.6.9.4,1.9-.4,2.3Z"/>
    <path class="st0" d="M14.9,24.9c-.9.6-2,.2-2.5-.8-.5-1-.2-2.3.6-2.9.9-.6,2.1-.3,2.6.8.6,1,.2,2.4-.7,2.9Z"/>
    <path class="st0" d="M10.3,34.1c-.2,0-.7-.4-1.1-1-.4-.6-.6-1.1-.4-1.2.2-.1.8.3,1.2,1,.4.6.5,1.2.3,1.3"/>
    <path class="st5" d="M10.6,15c-1.1,1-2,.8-2.1-.1,0-.8.7-2.2,1.5-3.1.9-.9,1.9-1.1,2.1-.3.3,1-.4,2.6-1.5,3.6Z"/>
    <path class="st5" d="M27.5,18.1c-1.3.7-3,.3-3.8-1-.7-1.3-.3-2.8,1-3.5,1.3-.7,2.9-.2,3.7,1,.8,1.2.4,2.8-.9,3.5Z"/>
    <path class="st5" d="M11.4,29.3c-.9.6-2.2-.2-2.9-1.6-.6-1.4-.5-3.2.3-3.9.9-.8,2.4-.3,3.1,1.3.8,1.6.5,3.6-.6,4.2Z"/>
    <path class="st5" d="M22.3,36.4c-1.1.4-2.5,0-3.2-.9-.7-.9-.5-2.1.6-2.6,1.1-.5,2.6-.1,3.4.9.7,1,.3,2.1-.8,2.6Z"/>
    <path class="st5" d="M30.5,5.2c-.8,0-2.2-.4-3-.8-.5-.2-.5-.3-.3-.3.6,0,1.2.2,1.8.4.6.2,1.2.4,1.8.6.3.1.1.2-.4.1"/>
    <path class="st3" d="M13.8,8.1c-1.3.9-2.2,1.2-2.2.8,0,0,0-.1.2-.2,1.1-1,2.3-1.8,3.6-2.5.2,0,.3-.1.3,0,.2.2-.7,1.2-2,2"/>
    <path class="st3" d="M26.3,6.2c-1.4.4-3.3.2-4-.6-.7-.6-.1-1.2,1.2-1.4,1.2-.1,2.7,0,3.6.4.9.5.6,1.3-.7,1.6Z"/>
    <path class="st1" d="M24.3,12.9c-1.7.9-3.9.4-4.7-1-.8-1.3,0-3,1.5-3.8,1.6-.7,3.5-.4,4.5.8,1,1.3.5,3.1-1.2,3.9"/>
    <path class="st3" d="M17.2,14.8c-.7.5-1.6.3-1.9-.4-.3-.6,0-1.5.7-1.9.7-.4,1.5-.3,1.9.3.4.6,0,1.5-.7,2Z"/>
    <path class="st1" d="M8.6,23.1c-.8.8-1.6.2-1.9-1.1-.2-1.3,0-2.9.7-3.8.7-.9,1.7-.7,2.1.6.5,1.5.1,3.4-.8,4.3"/>
    <path class="st3" d="M36.7,11.5c-.2,0-.6-.1-.8-.4-.2-.3-.2-.6,0-.7.2,0,.6.1.8.4.2.3.2.6,0,.7"/>
    <path class="st3" d="M8.3,31c-.3.2-.8-.6-1.3-1.8h0c-.2-.5-.3-1-.5-1.5-.1-.6-.2-1.1,0-1.4.3-.6,1.1,0,1.7,1.5.7,1.4.7,2.9.3,3.3"/>
    <path class="st3" d="M36.1,19.9c-.5.4-1.3.1-1.6-.6-.4-.7-.2-1.5.4-1.8.5-.3,1.3,0,1.6.6.3.7.2,1.5-.3,1.8"/>
    <path class="st1" d="M25.3,28.8c-1.6.9-3.7.3-4.7-1.3-1-1.6-.4-3.7,1.2-4.7,1.7-1,3.8-.4,4.8,1.3,1,1.7.4,3.7-1.3,4.7Z"/>
    <path class="st3" d="M13.3,33c-.5.2-1.3-.2-1.8-.9-.5-.7-.4-1.5,0-1.8.6-.3,1.4,0,1.9.8.5.7.4,1.6-.2,1.8"/>
    <path class="st3" d="M27.5,32.7c-.5.3-1.2.1-1.5-.3-.3-.5-.1-1.1.5-1.4.6-.3,1.3-.2,1.6.4.3.5,0,1.1-.5,1.4Z"/>
    <path class="st3" d="M6.8,17.7c-.3.6-.5.5-.5-.1.1-.5.4-1.4.7-2,.3-.6.5-.7.5,0,0,.6-.3,1.6-.7,2.2"/>
    <path class="st7" d="M17,37.6c-.6.1-1.5-.2-2-.8-.5-.6-.5-1.2,0-1.4.6-.2,1.6.1,2.1.8.5.6.4,1.2-.2,1.4"/>
    <path class="st7" d="M18.4,5.1c-.7.3-1.4.4-1.5.4,0,0,0,0,.3-.2.6-.2,1.2-.5,1.8-.6.1,0,.2,0,.3,0,.2,0-.2.3-.9.6"/>
    <path class="st7" d="M20.2,7.1c-.6.3-1.4.2-1.6,0-.2-.3,0-.8.7-1,.6-.2,1.3-.2,1.5,0,.3.3,0,.8-.6,1.1"/>
    <path class="st7" d="M33.4,7.5c-.4,0-1-.2-1.4-.6-.4-.4-.4-.7,0-.7.4,0,1,.3,1.3.6.4.3.4.7,0,.7"/>
    <path class="st7" d="M29.2,9c-.8.3-1.8,0-2.3-.6-.5-.6-.3-1.3.5-1.5.7-.2,1.7,0,2.2.6.5.6.4,1.3-.4,1.6Z"/>
    <path class="st7" d="M11.7,18.5c-.6.4-1.2.3-1.5-.4-.2-.6,0-1.5.6-1.9.6-.5,1.2-.3,1.5.3.3.7,0,1.6-.6,2"/>
    <path class="st7" d="M21,21.7c-1.2.7-2.8.3-3.4-.9-.7-1.2-.2-2.7,1-3.5,1.2-.7,2.7-.3,3.4.8.7,1.2.3,2.8-1,3.5Z"/>
    <path class="st8" d="M30.7,23.7c-.8.5-1.9.2-2.4-.7-.5-.9-.2-2,.6-2.5.8-.5,1.9-.2,2.4.7.5.9.2,1.9-.6,2.4Z"/>
    <path class="st7" d="M18.8,31.5c-1.2.6-2.8,0-3.6-1.2-.8-1.3-.5-2.8.7-3.5,1.2-.7,2.9-.2,3.7,1.1.8,1.3.4,2.9-.8,3.6Z"/>
    <path class="st7" d="M33.4,28.9c-.4.2-.8.1-1-.2-.2-.4,0-.9.3-1.1.4-.2.8-.1,1,.2.2.4,0,.9-.3,1.1Z"/>
    <path class="st4" d="M13.8,37.7c-.3-.1-.9-.6-1.4-1-.5-.4-.7-.8-.5-.7.3,0,1,.5,1.5,1,.5.5.7.8.3.7Z"/>
    <path class="st1" d="M20.1,40.1c-.3,0-.7-.1-.9-.2-.2-.2-.2-.3,0-.3.3,0,.7,0,.9.3.2.2.2.3,0,.3Z"/>
  </g>
</svg>